#tb 0: 1/1000
0,          0,          0,        0,  4617600, 0x4ba6df50
0,         66,         66,        0,  4617600, 0x419fdeaf
0,        132,        132,        0,  4617600, 0xeb2edced
0,        198,        198,        0,  4617600, 0xa2bb3a1a
0,        264,        264,        0,  4617600, 0x411cfb36
0,        330,        330,        0,  4617600, 0xb2dc22ed
0,        396,        396,        0,  4617600, 0x236d23b5
0,        462,        462,        0,  4617600, 0x7fef275e
